<svg viewBox="0 0 100 100" xmlns="http://www.w3.org/2000/svg">
<polygon points="15.000000,5.000000 25.000000,15.000000 15.000000,25.000000" stroke="rgb(39, 39, 163)" fill="rgb(39, 39, 163)"/>
<polygon points="14.500000,5.000000 20.000000,20.000000 10.000000,30.000000" stroke="rgb(81, 31, 5)" fill="rgb(81, 31, 5)"/>
<polygon points="65.000000,5.000000 55.000000,15.000000 65.000000,25.000000" stroke="rgb(39, 39, 163)" fill="rgb(39, 39, 163)"/>
<polygon points="65.500000,4.000000 60.000000,20.000000 65.000000,25.000000" stroke="rgb(81, 31, 5)" fill="rgb(81, 31, 5)"/>
<circle cx="40.000000" cy="40.000000" r="35.000000" stroke="rgb(39, 39, 163)" fill="rgb(39, 39, 163)"/>
<rect x="5.000000" y="40.000000" width="70.000000" height="45.000000" stroke="rgb(39, 39, 163)" fill="rgb(39, 39, 163)"/>
<rect x="5.000000" y="45.000000" width="70.000000" height="2.000000" stroke="rgb(254, 57, 129)" fill="rgb(254, 57, 129)"/>
<rect x="5.000000" y="76.000000" width="10.000000" height="15.000000" stroke="rgb(39, 39, 163)" fill="rgb(39, 39, 163)"/>
<rect x="20.000000" y="76.000000" width="10.000000" height="15.000000" stroke="rgb(39, 39, 163)" fill="rgb(39, 39, 163)"/>
<rect x="50.000000" y="76.000000" width="10.000000" height="15.000000" stroke="rgb(39, 39, 163)" fill="rgb(39, 39, 163)"/>
<rect x="65.000000" y="76.000000" width="10.000000" height="15.000000" stroke="rgb(39, 39, 163)" fill="rgb(39, 39, 163)"/>
<circle cx="10.000000" cy="91.000000" r="5.000000" stroke="rgb(39, 39, 163)" fill="rgb(39, 39, 163)"/>
<circle cx="25.000000" cy="91.000000" r="5.000000" stroke="rgb(39, 39, 163)" fill="rgb(39, 39, 163)"/>
<circle cx="55.000000" cy="91.000000" r="5.000000" stroke="rgb(39, 39, 163)" fill="rgb(39, 39, 163)"/>
<circle cx="70.000000" cy="91.000000" r="5.000000" stroke="rgb(39, 39, 163)" fill="rgb(39, 39, 163)"/>
<rect x="76.000000" y="65.000000" width="15.000000" height="10.000000" stroke="rgb(39, 39, 163)" fill="rgb(39, 39, 163)"/>
<circle cx="90.000000" cy="70.000000" r="5.000000" stroke="rgb(39, 39, 163)" fill="rgb(39, 39, 163)"/>
<rect x="85.000000" y="55.000000" width="10.000000" height="15.000000" stroke="rgb(39, 39, 163)" fill="rgb(39, 39, 163)"/>
<circle cx="90.000000" cy="55.000000" r="5.000000" stroke="rgb(39, 39, 163)" fill="rgb(39, 39, 163)"/>
<rect x="16.000000" y="65.000000" width="33.000000" height="20.000000" stroke="rgb(107, 170, 248)" fill="rgb(107, 170, 248)"/>
<ellipse cx="32.500000" cy="65.000000" rx="16.500000" ry="10.000000" stroke="rgb(107, 170, 248)" fill="rgb(107, 170, 248)" />
<ellipse cx="28.000000" cy="18.000000" rx="4.000000" ry="3.000000" stroke="rgb(9, 180, 144)" fill="rgb(9, 180, 144)" />
<ellipse cx="52.000000" cy="18.000000" rx="4.000000" ry="3.000000" stroke="rgb(9, 180, 144)" fill="rgb(9, 180, 144)" />
<ellipse cx="40.000000" cy="33.000000" rx="15.000000" ry="10.000000" stroke="rgb(62, 235, 193)" fill="rgb(62, 235, 193)" />
<path d="M 40.000000 30.000000 q 8.000000 10.000000 15.000000 0.000000" stroke="rgb(238, 251, 220)" stroke-width="3.000000" fill="none" />
<circle cx="40.000000" cy="28.000000" r="2.000000" stroke="rgb(238, 251, 220)" fill="rgb(238, 251, 220)"/>
<path d="M 25.000000 30.000000 q 6.000000 10.000000 15.000000 0.000000" stroke="rgb(238, 251, 220)" stroke-width="3.000000" fill="none" />
<circle cx="25.000000" cy="30.000000" r="1.000000" stroke="rgb(238, 251, 220)" fill="rgb(238, 251, 220)"/>
<circle cx="55.000000" cy="30.000000" r="1.000000" stroke="rgb(238, 251, 220)" fill="rgb(238, 251, 220)"/>
<polygon points="37.500000,46.000000 25.000000,40.000000 25.000000,50.000000" stroke="rgb(254, 57, 129)" fill="rgb(254, 57, 129)"/>
<polygon points="37.500000,46.000000 50.000000,40.000000 50.000000,50.000000" stroke="rgb(254, 57, 129)" fill="rgb(254, 57, 129)"/>
<ellipse cx="37.500000" cy="46.000000" rx="3.000000" ry="2.000000" stroke="rgb(254, 57, 129)" fill="rgb(254, 57, 129)" />
</svg>